<?xml version="1.0" standalone="no"?>
<!DOCTYPE svg PUBLIC "-//W3C//DTD SVG 20010904//EN"
 "http://www.w3.org/TR/2001/REC-SVG-20010904/DTD/svg10.dtd">
<svg version="1.0" xmlns="http://www.w3.org/2000/svg"
 width="222.000000pt" height="222.000000pt" viewBox="0 0 222.000000 222.000000"
 preserveAspectRatio="xMidYMid meet">
<metadata>
Created by potrace 1.14, written by Peter Selinger 2001-2017
</metadata>
<g transform="translate(0.000000,222.000000) scale(0.100000,-0.100000)"
fill="#000000" stroke="none">
<path d="M830 2175 c0 -33 -2 -35 -35 -35 -33 0 -35 -2 -35 -35 0 -33 -2 -35
-35 -35 -33 0 -35 -2 -35 -35 0 -34 -1 -35 -38 -35 l-37 0 0 -67 0 -68 -35 -5
c-32 -5 -35 -8 -34 -37 1 -33 -2 -35 -46 -37 -21 -1 -26 -7 -30 -36 l-5 -35
-125 0 c-69 1 -131 -1 -137 -3 -9 -3 -13 -27 -13 -73 l0 -69 35 0 c33 0 35 -2
35 -35 0 -33 2 -35 35 -35 33 0 35 -2 35 -35 0 -33 -2 -35 -35 -35 -33 0 -35
-2 -35 -35 0 -33 -2 -35 -35 -35 l-35 0 0 -70 0 -70 -35 0 -35 0 0 -145 0
-145 70 0 70 0 0 -213 0 -213 35 1 35 2 0 -143 0 -143 143 -3 142 -3 0 -30 c1
-27 4 -30 38 -33 35 -3 37 -5 37 -38 0 -32 2 -34 35 -34 34 0 35 -1 35 -40 l0
-40 320 0 320 0 0 40 0 40 105 0 105 0 0 35 c0 33 2 35 35 35 l35 0 0 70 0 70
35 0 c19 0 36 5 36 10 1 6 2 20 3 33 1 21 5 22 109 25 l107 3 0 144 0 145 35
0 c33 0 35 2 35 35 0 33 2 35 35 35 l35 0 -2 178 -3 177 -32 -1 -33 -1 0 214
0 213 -35 0 -35 0 0 70 0 70 35 0 35 0 0 250 0 250 -109 0 -108 0 3 -34 c2
-33 1 -35 -34 -38 -35 -3 -37 -5 -36 -35 1 -32 -1 -33 -38 -33 -37 0 -38 -1
-38 -35 0 -33 -2 -35 -35 -35 -33 0 -35 2 -35 35 l0 35 -320 0 -320 0 0 105 0
105 -70 0 -70 0 0 -35z"/>
</g>
</svg>
